<svg width="80" height="80" viewBox="0 0 80 80" fill="none" xmlns="http://www.w3.org/2000/svg">
<path d="M69.0909 0H10.9091C8.01582 0 5.24105 1.14935 3.1952 3.1952C1.14935 5.24105 0 8.01582 0 10.9091L0 69.0909C0 71.9842 1.14935 74.759 3.1952 76.8048C5.24105 78.8507 8.01582 80 10.9091 80H69.0909C71.9842 80 74.759 78.8507 76.8048 76.8048C78.8507 74.759 80 71.9842 80 69.0909V10.9091C80 8.01582 78.8507 5.24105 76.8048 3.1952C74.759 1.14935 71.9842 0 69.0909 0ZM47.8409 63.8864C46.5591 64.1318 46.1227 63.3591 46.1227 62.7182C46.1227 61.9182 46.1545 59.2773 46.1545 55.9909C46.1545 53.6864 45.3409 52.1818 44.4682 51.4455C50.0273 50.8409 55.8727 48.7636 55.8727 39.3273C55.9096 36.8775 54.99 34.5098 53.3091 32.7273C53.5591 32.1045 54.4045 29.6045 53.0591 26.2227C53.0591 26.2227 50.9682 25.5636 46.2409 28.7409C42.1472 27.6379 37.8346 27.6379 33.7409 28.7409C28.9591 25.5591 26.8636 26.2227 26.8636 26.2227C25.5 29.6136 26.3636 32.1136 26.6227 32.7273C24.9379 34.5043 24.0145 36.8696 24.05 39.3182C24.05 48.7273 29.8864 50.8409 35.4136 51.4545C34.5072 52.3233 33.9454 53.4905 33.8318 54.7409C32.4 55.3682 28.7773 56.4545 26.5591 52.7C26.5591 52.7 25.2409 50.3364 22.7318 50.1682C22.7318 50.1682 20.2909 50.1364 22.5545 51.6591C22.5545 51.6591 24.2 52.4182 25.3364 55.25C25.3364 55.25 26.8045 60.0273 33.7591 58.55C33.7591 60.5955 33.7864 62.1409 33.7864 62.7273C33.7864 63.3136 33.3318 64.1364 32.0818 63.9045C22.1636 60.6682 15 51.4636 15 40.6091C15 27.0409 26.1864 16.0636 40 16.0636C53.8136 16.0636 65 27.0636 65 40.6318C65 51.4455 57.8455 60.6591 47.8409 63.8864Z" fill="black"/>
</svg>
