<svg width="80" height="80" viewBox="0 0 80 80" fill="none" xmlns="http://www.w3.org/2000/svg">
<path d="M40 80C62.0914 80 80 62.0914 80 40C80 17.9086 62.0914 0 40 0C17.9086 0 0 17.9086 0 40C0 62.0914 17.9086 80 40 80Z" fill="#039BE5"/>
<path d="M18.3032 39.1333L56.8699 24.2633C58.6599 23.6166 60.2232 24.7 59.6432 27.4066L59.6466 27.4033L53.0799 58.34C52.5932 60.5333 51.2899 61.0666 49.4666 60.0333L39.4666 52.6633L34.6432 57.31C34.1099 57.8433 33.6599 58.2933 32.6266 58.2933L33.3366 48.1166L51.8699 31.3733C52.6766 30.6633 51.6899 30.2633 50.6266 30.97L27.7232 45.39L17.8499 42.31C15.7066 41.63 15.6599 40.1666 18.3032 39.1333Z" fill="white"/>
</svg>
