<svg width="80" height="62" viewBox="0 0 80 62" fill="none" xmlns="http://www.w3.org/2000/svg">
<path d="M5.45453 61.0073H18.1819V30.0982L9.84781 15.5454L0 16.4618V55.5528C0 58.5663 2.44094 61.0073 5.45453 61.0073Z" fill="#0085F7"/>
<path d="M61.8181 61.0073H74.5455C77.5591 61.0073 80 58.5663 80 55.5528V16.4618L70.1664 15.5454L61.8183 30.0982V61.0073H61.8181Z" fill="#00A94B"/>
<path d="M61.8181 6.46187L54.342 20.728L61.8181 30.0983L80 16.4619V9.18922C80 2.44828 72.3045 -1.40172 66.9091 2.64375L61.8181 6.46187Z" fill="#FFBC00"/>
<path fill-rule="evenodd" clip-rule="evenodd" d="M18.1818 30.0983L11.0579 15.0499L18.1818 6.46191L39.9999 22.8255L61.818 6.46191V30.0983L39.9999 46.4619L18.1818 30.0983Z" fill="#FF4131"/>
<path d="M0 9.18922V16.4619L18.1819 30.0983V6.46187L13.0909 2.64375C7.69547 -1.40172 0 2.44828 0 9.18922Z" fill="#E51C19"/>
</svg>
