<svg width="512" height="488" viewBox="0 0 512 488" fill="none" xmlns="http://www.w3.org/2000/svg">
<path d="M0 192L256 40L512 192V416H0V192Z" fill="#6675C3"/>
<path d="M55.9994 -0.000366211H455.998C464.799 -0.000366211 471.999 7.19939 471.999 15.9998V295.999C471.999 304.799 464.799 311.999 455.998 311.999H55.9994C47.199 311.999 39.9993 304.799 39.9993 295.999V15.9998C40.0003 7.2004 47.2 -0.000366211 55.9994 -0.000366211Z" fill="#EF1A1A"/>
<path d="M422.4 31.9999L447.999 -0.000366211H455.999C464.8 -0.000366211 472 7.19939 472 15.9998V31.9999H422.4ZM214.4 31.9999L240 -0.000366211H295.999L270.399 31.9999H214.4ZM40.0002 31.9999V15.9998C40.0002 7.19939 47.2 -0.000366211 56.0004 -0.000366211H96.0007L70.3999 31.9999H40.0002Z" fill="#18D171"/>
<path d="M511.999 463.999C511.999 477.199 501.199 487.999 487.999 487.999H24.0002C10.8001 488 0 477.199 0 463.999V192L256 304L512 192V463.999H511.999Z" fill="#3856F2"/>
<path d="M511.999 463.999C511.999 477.199 501.199 487.999 487.999 487.999H24.0002C10.8001 488 0 477.199 0 463.999V415.999L511.999 191.999V463.999Z" fill="#2840BB"/>
<path d="M162.799 142L165.999 158.8L140.4 118.8L104.4 174.799C104 179.999 127.2 183.999 156 183.999C184.8 183.999 208 179.999 208 174.799L176.399 128L162.799 142ZM165.999 120C171.6 120 175.999 115.6 175.999 110C175.999 104.4 171.6 99.9999 165.999 99.9999C160.399 99.9999 156 104.4 156 110C156 115.6 160.399 120 165.999 120ZM248 116H407.999C412.399 116 415.999 112.4 415.999 108C415.999 103.6 412.399 99.9999 407.999 99.9999H248C243.6 99.9999 240 103.6 240 108C240 112.4 243.599 116 248 116ZM407.999 132H248C243.6 132 240 135.601 240 140C240 144.4 243.6 148 248 148H407.999C412.399 148 415.999 144.4 415.999 140C415.999 135.6 412.399 132 407.999 132ZM367.999 163.999H248C243.6 163.999 240 167.6 240 171.999C240 176.399 243.6 179.999 248 179.999H368C372.399 179.999 376 176.399 376 171.999C375.999 167.6 372.399 163.999 367.999 163.999Z" fill="#18D171"/>
<path d="M318.4 31.9999L344 -0.000366211H399.999L374.399 31.9999H318.4ZM110.4 31.9999L136 -0.000366211H191.999L166.4 31.9999H110.4Z" fill="#18D171"/>
</svg>
